<svg width="56" height="40" viewBox="0 0 56 40" fill="none" xmlns="http://www.w3.org/2000/svg">
<rect width="56" height="40" rx="8" fill="#EEEEEE"/>
<path d="M28 21C28.5523 21 29 20.5523 29 20C29 19.4477 28.5523 19 28 19C27.4477 19 27 19.4477 27 20C27 20.5523 27.4477 21 28 21Z" stroke="black" stroke-width="2" stroke-linecap="round" stroke-linejoin="round"/>
<path d="M35 21C35.5523 21 36 20.5523 36 20C36 19.4477 35.5523 19 35 19C34.4477 19 34 19.4477 34 20C34 20.5523 34.4477 21 35 21Z" stroke="black" stroke-width="2" stroke-linecap="round" stroke-linejoin="round"/>
<path d="M21 21C21.5523 21 22 20.5523 22 20C22 19.4477 21.5523 19 21 19C20.4477 19 20 19.4477 20 20C20 20.5523 20.4477 21 21 21Z" stroke="black" stroke-width="2" stroke-linecap="round" stroke-linejoin="round"/>
</svg>
